<svg width="209" height="224" viewBox="0 0 209 224" fill="none" xmlns="http://www.w3.org/2000/svg">
<g clip-path="url(#clip0_4_6)">
<mask id="mask0_4_6" style="mask-type:alpha" maskUnits="userSpaceOnUse" x="25" y="29" width="159" height="195">
<path d="M123.5 144.304V158.932H126.667C158.147 158.932 183.667 184.574 183.667 216.205V223.364H25.3333V216.205C25.3333 184.574 50.8531 158.932 82.3333 158.932H85.5V144.304C71.8538 137.79 62.0447 124.478 60.4082 108.724C55.7969 108.069 52.25 104.087 52.25 99.2727V88.1363C52.25 83.4066 55.6736 79.4803 60.1667 78.7229V73.8182C60.1667 49.2164 80.0154 29.2727 104.5 29.2727C128.985 29.2727 148.833 49.2164 148.833 73.8182V78.7229C153.326 79.4803 156.75 83.4066 156.75 88.1363V99.2727C156.75 104.087 153.203 108.069 148.592 108.724C146.955 124.478 137.146 137.79 123.5 144.304Z" fill="white"/>
</mask>
<g mask="url(#mask0_4_6)">
<path d="M123.5 144.304V158.932H126.667C158.147 158.932 183.667 184.574 183.667 216.205V223.364H25.3333V216.205C25.3333 184.574 50.8531 158.932 82.3333 158.932H85.5V144.304C71.8538 137.79 62.0447 124.478 60.4082 108.724C55.7969 108.069 52.25 104.087 52.25 99.2727V88.1363C52.25 83.4066 55.6736 79.4803 60.1667 78.7229V73.8182C60.1667 49.2164 80.0154 29.2727 104.5 29.2727C128.985 29.2727 148.833 49.2164 148.833 73.8182V78.7229C153.326 79.4803 156.75 83.4066 156.75 88.1363V99.2727C156.75 104.087 153.203 108.069 148.592 108.724C146.955 124.478 137.146 137.79 123.5 144.304Z" fill="#D0C6AC"/>
<path d="M209 29.2727H0V223.364H209V29.2727Z" fill="#FFDBB4"/>
<path fill-rule="evenodd" clip-rule="evenodd" d="M148.833 92.1136V110.409C148.833 135.011 128.985 154.955 104.5 154.955C80.0154 154.955 60.1667 135.011 60.1667 110.409V92.1136V104.045C60.1667 128.647 80.0154 148.591 104.5 148.591C128.985 148.591 148.833 128.647 148.833 104.045V92.1136Z" fill="black" fill-opacity="0.1"/>
</g>
<mask id="mask1_4_6" style="mask-type:alpha" maskUnits="userSpaceOnUse" x="25" y="146" width="159" height="78">
<path fill-rule="evenodd" clip-rule="evenodd" d="M85.5 146.261C71.3144 147.856 60.3882 152.212 60.17 163.422C39.6993 172.111 25.3333 192.472 25.3333 216.204V223.364H183.667V216.204C183.667 192.472 169.301 172.111 148.83 163.422C148.612 152.212 137.686 147.856 123.5 146.261V161.318C123.5 171.862 114.993 180.409 104.5 180.409C94.0066 180.409 85.5 171.862 85.5 161.318V146.261Z" fill="white"/>
</mask>
<g mask="url(#mask1_4_6)">
<path fill-rule="evenodd" clip-rule="evenodd" d="M85.5 146.261C71.3144 147.856 60.3882 152.212 60.17 163.422C39.6993 172.111 25.3333 192.472 25.3333 216.204V223.364H183.667V216.204C183.667 192.472 169.301 172.111 148.83 163.422C148.612 152.212 137.686 147.856 123.5 146.261V161.318C123.5 171.862 114.993 180.409 104.5 180.409C94.0066 180.409 85.5 171.862 85.5 161.318V146.261Z" fill="#B7C1DB"/>
<path d="M209 135.864H0V223.364H209V135.864Z" fill="#5D5D5D"/>
<path fill-rule="evenodd" clip-rule="evenodd" d="M80.75 184.974V223.364H75.2083V182.12C76.953 183.161 78.8079 184.117 80.75 184.974ZM133.792 182.12V214.216C133.792 215.753 132.551 217 131.021 217C129.491 217 128.25 215.753 128.25 214.216V184.974C130.192 184.117 132.047 183.161 133.792 182.12Z" fill="#F4F4F4"/>
<path fill-rule="evenodd" clip-rule="evenodd" d="M72.0101 145.985C60.0949 148.25 51.8542 152.761 51.8542 161.563C51.8542 177.243 78.009 189.955 104.5 189.955C130.991 189.955 157.146 177.243 157.146 161.563C157.146 152.761 148.905 148.25 136.99 145.985C144.182 148.65 148.833 153.13 148.833 160.584C148.833 176.805 126.808 189.955 104.5 189.955C82.1918 189.955 60.1667 176.805 60.1667 160.584C60.1667 153.13 64.8178 148.65 72.0101 145.985Z" fill="black" fill-opacity="0.16"/>
</g>
<mask id="mask2_4_6" style="mask-type:alpha" maskUnits="userSpaceOnUse" x="89" y="117" width="31" height="16">
<path fill-rule="evenodd" clip-rule="evenodd" d="M89.5516 119.261C90.3891 126.811 96.7622 132.682 104.5 132.682C112.262 132.682 118.65 126.775 119.456 119.191C119.521 118.581 118.842 117.568 117.992 117.568C106.201 117.568 97.1675 117.568 91.1104 117.568C90.2552 117.568 89.4678 118.506 89.5516 119.261Z" fill="white"/>
</mask>
<g mask="url(#mask2_4_6)">
<path fill-rule="evenodd" clip-rule="evenodd" d="M89.5516 119.261C90.3891 126.811 96.7622 132.682 104.5 132.682C112.262 132.682 118.65 126.775 119.456 119.191C119.521 118.581 118.842 117.568 117.992 117.568C106.201 117.568 97.1675 117.568 91.1104 117.568C90.2552 117.568 89.4678 118.506 89.5516 119.261Z" fill="black" fill-opacity="0.7"/>
<path d="M113.208 108.818H96.5833C94.3972 108.818 92.625 110.599 92.625 112.795V117.568C92.625 119.765 94.3972 121.545 96.5833 121.545H113.208C115.394 121.545 117.167 119.765 117.167 117.568V112.795C117.167 110.599 115.394 108.818 113.208 108.818Z" fill="white"/>
<path d="M100.542 143.818C105.351 143.818 109.25 139.901 109.25 135.068C109.25 130.236 105.351 126.318 100.542 126.318C95.7322 126.318 91.8333 130.236 91.8333 135.068C91.8333 139.901 95.7322 143.818 100.542 143.818Z" fill="#FF4F6D"/>
<path d="M108.458 143.818C113.268 143.818 117.167 139.901 117.167 135.068C117.167 130.236 113.268 126.318 108.458 126.318C103.649 126.318 99.75 130.236 99.75 135.068C99.75 139.901 103.649 143.818 108.458 143.818Z" fill="#FF4F6D"/>
</g>
<path fill-rule="evenodd" clip-rule="evenodd" d="M95 104.045C95 107.56 99.2533 110.409 104.5 110.409C109.747 110.409 114 107.56 114 104.045" fill="black" fill-opacity="0.16"/>
<path d="M83.9167 94.5C86.54 94.5 88.6667 92.3632 88.6667 89.7273C88.6667 87.0914 86.54 84.9545 83.9167 84.9545C81.2933 84.9545 79.1667 87.0914 79.1667 89.7273C79.1667 92.3632 81.2933 94.5 83.9167 94.5Z" fill="black" fill-opacity="0.6"/>
<path d="M125.083 94.5C127.707 94.5 129.833 92.3632 129.833 89.7273C129.833 87.0914 127.707 84.9545 125.083 84.9545C122.46 84.9545 120.333 87.0914 120.333 89.7273C120.333 92.3632 122.46 94.5 125.083 94.5Z" fill="black" fill-opacity="0.6"/>
<path fill-rule="evenodd" clip-rule="evenodd" d="M81.1833 70.7544C76.5861 70.9678 69.1539 74.3243 69.3454 78.9824C69.3517 79.1349 69.5746 79.2018 69.6835 79.0845C71.8644 76.7305 87.3498 74.3519 92.804 75.6124C93.3032 75.7279 93.6824 75.2331 93.3663 74.8757C90.6571 71.8146 85.302 70.5592 81.1833 70.7544Z" fill="black" fill-opacity="0.6"/>
<path fill-rule="evenodd" clip-rule="evenodd" d="M128.608 70.7544C133.206 70.9678 140.638 74.3243 140.446 78.9824C140.44 79.1349 140.217 79.2018 140.108 79.0845C137.927 76.7305 122.442 74.3519 116.988 75.6124C116.488 75.7279 116.109 75.2331 116.425 74.8757C119.135 71.8146 124.49 70.5592 128.608 70.7544Z" fill="black" fill-opacity="0.6"/>
<mask id="mask3_4_6" style="mask-type:alpha" maskUnits="userSpaceOnUse" x="0" y="0" width="209" height="224">
<path d="M209 0.636353H0V223.364H209V0.636353Z" fill="white"/>
</mask>
<g mask="url(#mask3_4_6)">
<mask id="mask4_4_6" style="mask-type:alpha" maskUnits="userSpaceOnUse" x="57" y="7" width="96" height="74">
<path fill-rule="evenodd" clip-rule="evenodd" d="M73.8244 42.0176C73.9218 41.9743 73.6802 41.9577 73.0994 41.9678C73.8052 41.9664 74.0469 41.9829 73.8244 42.0176ZM67.3843 29.5126C67.3826 29.497 67.3976 29.6328 67.3843 29.5126V29.5126ZM152.606 56.9272C152.397 54.2887 152.026 51.6663 151.404 49.0883C150.909 47.0395 150.234 45.0844 149.435 43.1296C148.953 41.9486 147.826 40.3264 147.694 39.0524C147.563 37.7975 148.538 36.4073 148.746 34.9462C148.948 33.5242 148.913 32.0291 148.623 30.6201C147.963 27.4201 145.778 24.4443 142.403 23.6102C141.649 23.4239 140.056 23.6535 139.524 23.2126C138.914 22.707 138.488 20.9846 137.936 20.2938C136.36 18.3242 133.902 17.0559 131.31 17.4981C129.402 17.8236 130.498 18.2201 129.067 17.0915C128.271 16.464 127.677 15.5059 126.904 14.8266C125.743 13.8062 124.41 12.9326 123.031 12.2157C119.424 10.34 115.31 8.97661 111.28 8.31203C103.929 7.09961 96.0837 8.15664 88.9585 10.0775C85.4131 11.0332 81.8437 12.2462 78.5508 13.8503C77.1389 14.538 76.3238 15.1086 74.8517 15.2887C72.5331 15.5724 70.5695 15.5582 68.3732 16.5462C61.6153 19.5864 58.5714 26.6396 61.2011 33.3892C61.7301 34.7467 62.4463 35.9388 63.4337 37.0352C64.6376 38.3721 65.0731 38.109 64.0362 39.6464C62.4855 41.9452 61.1782 44.3966 60.1138 46.9421C57.3201 53.6252 56.8526 61.1523 57.0345 68.2797C57.0982 70.7749 57.2047 73.3007 57.5963 75.772C57.7654 76.8416 57.8128 78.8529 58.6114 79.6466C59.0165 80.0491 59.5937 80.2735 60.1695 80.1132C61.5229 79.7365 61.0575 78.7331 61.089 77.8015C61.2472 73.1214 61.0336 68.9811 62.1413 64.3574C62.9596 60.9412 64.3233 57.8387 66.0905 54.784C68.3378 50.8989 70.7637 47.4868 73.8542 44.1601C74.5808 43.3777 74.7395 43.0461 75.7139 42.9894C76.4517 42.9466 77.5309 43.4543 78.2482 43.63C79.8298 44.0173 81.4143 44.4002 83.0247 44.661C85.9855 45.1406 88.9172 45.1728 91.9046 45.0787C97.7839 44.894 103.688 44.4796 109.389 42.992C113.174 42.0042 116.531 40.2311 120.157 38.9313C120.221 38.9081 121.13 38.2575 121.289 38.284C121.512 38.3208 122.855 39.7363 123.081 39.9146C124.843 41.3031 126.776 41.886 128.679 42.961C131.025 44.2866 128.753 42.3897 130.047 44.0418C130.424 44.5229 130.617 45.415 130.919 45.96C131.882 47.6963 133.221 49.2223 134.823 50.4332C136.371 51.6031 138.697 52.1682 139.486 53.6909C140.095 54.8657 140.3 56.4624 140.791 57.7165C142.079 61.0059 143.781 64.0734 145.482 67.1716C146.853 69.6684 148.352 71.8494 148.505 74.7026C148.558 75.6957 147.617 81.6529 149.908 79.8411C150.248 79.5726 150.98 76.5352 151.13 76.0199C151.741 73.9256 151.958 71.7394 152.234 69.5877C152.784 65.3085 152.965 61.2371 152.606 56.9272Z" fill="white"/>
</mask>
<g mask="url(#mask4_4_6)">
<path fill-rule="evenodd" clip-rule="evenodd" d="M73.8244 42.0176C73.9218 41.9743 73.6802 41.9577 73.0994 41.9678C73.8052 41.9664 74.0469 41.9829 73.8244 42.0176ZM67.3843 29.5126C67.3826 29.497 67.3976 29.6328 67.3843 29.5126V29.5126ZM152.606 56.9272C152.397 54.2887 152.026 51.6663 151.404 49.0883C150.909 47.0395 150.234 45.0844 149.435 43.1296C148.953 41.9486 147.826 40.3264 147.694 39.0524C147.563 37.7975 148.538 36.4073 148.746 34.9462C148.948 33.5242 148.913 32.0291 148.623 30.6201C147.963 27.4201 145.778 24.4443 142.403 23.6102C141.649 23.4239 140.056 23.6535 139.524 23.2126C138.914 22.707 138.488 20.9846 137.936 20.2938C136.36 18.3242 133.902 17.0559 131.31 17.4981C129.402 17.8236 130.498 18.2201 129.067 17.0915C128.271 16.464 127.677 15.5059 126.904 14.8266C125.743 13.8062 124.41 12.9326 123.031 12.2157C119.424 10.34 115.31 8.97661 111.28 8.31203C103.929 7.09961 96.0837 8.15664 88.9585 10.0775C85.4131 11.0332 81.8437 12.2462 78.5508 13.8503C77.1389 14.538 76.3238 15.1086 74.8517 15.2887C72.5331 15.5724 70.5695 15.5582 68.3732 16.5462C61.6153 19.5864 58.5714 26.6396 61.2011 33.3892C61.7301 34.7467 62.4463 35.9388 63.4337 37.0352C64.6376 38.3721 65.0731 38.109 64.0362 39.6464C62.4855 41.9452 61.1782 44.3966 60.1138 46.9421C57.3201 53.6252 56.8526 61.1523 57.0345 68.2797C57.0982 70.7749 57.2047 73.3007 57.5963 75.772C57.7654 76.8416 57.8128 78.8529 58.6114 79.6466C59.0165 80.0491 59.5937 80.2735 60.1695 80.1132C61.5229 79.7365 61.0575 78.7331 61.089 77.8015C61.2472 73.1214 61.0336 68.9811 62.1413 64.3574C62.9596 60.9412 64.3233 57.8387 66.0905 54.784C68.3378 50.8989 70.7637 47.4868 73.8542 44.1601C74.5808 43.3777 74.7395 43.0461 75.7139 42.9894C76.4517 42.9466 77.5309 43.4543 78.2482 43.63C79.8298 44.0173 81.4143 44.4002 83.0247 44.661C85.9855 45.1406 88.9172 45.1728 91.9046 45.0787C97.7839 44.894 103.688 44.4796 109.389 42.992C113.174 42.0042 116.531 40.2311 120.157 38.9313C120.221 38.9081 121.13 38.2575 121.289 38.284C121.512 38.3208 122.855 39.7363 123.081 39.9146C124.843 41.3031 126.776 41.886 128.679 42.961C131.025 44.2866 128.753 42.3897 130.047 44.0418C130.424 44.5229 130.617 45.415 130.919 45.96C131.882 47.6963 133.221 49.2223 134.823 50.4332C136.371 51.6031 138.697 52.1682 139.486 53.6909C140.095 54.8657 140.3 56.4624 140.791 57.7165C142.079 61.0059 143.781 64.0734 145.482 67.1716C146.853 69.6684 148.352 71.8494 148.505 74.7026C148.558 75.6957 147.617 81.6529 149.908 79.8411C150.248 79.5726 150.98 76.5352 151.13 76.0199C151.741 73.9256 151.958 71.7394 152.234 69.5877C152.784 65.3085 152.965 61.2371 152.606 56.9272Z" fill="#28354B"/>
<path d="M208.208 0.636353H-0.791672V223.364H208.208V0.636353Z" fill="#2C1B18"/>
</g>
</g>
</g>
<defs>
<clipPath id="clip0_4_6">
<rect width="209" height="224" fill="white"/>
</clipPath>
</defs>
</svg>
