<svg width="32" height="32" viewBox="0 0 32 32" fill="none" xmlns="http://www.w3.org/2000/svg">
<g clip-path="url(#clip0_8_20)">
<path d="M23.74 2.92928V3.01728H23.948V3.60395H24.044V3.01728H24.252V2.92928H23.74ZM24.94 2.92928L24.7067 3.39995L24.4773 2.92928H24.3613V3.60395H24.4507V3.06662L24.68 3.53328H24.74L24.9693 3.06662V3.60528H25.0573V2.93062L24.94 2.92928ZM19.264 4.26262C18.992 4.67595 18.6987 5.14262 18.384 5.67595L18.3307 5.75862C17.7386 6.75963 17.1761 7.77785 16.644 8.81195C16.3947 9.29195 16.1373 9.80128 15.8747 10.3399L18.8973 10.0066C19.7773 9.60395 20.1707 9.23595 20.5533 8.70528C20.6576 8.55465 20.7598 8.40263 20.86 8.24928C21.1667 7.76528 21.4733 7.23195 21.744 6.70262C22.0067 6.18795 22.2373 5.67995 22.4173 5.22262C22.528 4.92928 22.6173 4.65995 22.6813 4.42262C22.7373 4.21195 22.78 4.01328 22.8147 3.82262C21.636 4.02262 20.1947 4.21595 19.2573 4.26262H19.264ZM15.8587 10.3733L15.756 10.5866C15.652 10.7999 15.5467 11.0133 15.4413 11.2373C15.3267 11.4773 15.212 11.7226 15.0947 11.9733L14.9187 12.3559C14.2495 13.8073 13.6151 15.2743 13.016 16.7559C12.7987 17.2853 12.58 17.8319 12.3587 18.3959C12.1587 18.9026 11.9627 19.4159 11.7587 19.9479L11.732 20.0279C11.532 20.5559 11.332 21.0973 11.128 21.6546L11.1147 21.6906L12.0747 21.5839C12.0558 21.5832 12.037 21.5805 12.0187 21.5759C13.1693 21.4346 14.6987 20.5759 15.6853 19.5133C16.1413 19.0239 16.5547 18.4466 16.9387 17.7719C17.2227 17.2693 17.4893 16.7119 17.744 16.0946C17.968 15.5546 18.1813 14.9706 18.384 14.3373C18.1227 14.4773 17.82 14.5773 17.4867 14.6506C17.3668 14.6787 17.2452 14.6992 17.1227 14.7119C18.1973 14.2986 18.8747 13.5053 19.3667 12.5253C18.9764 12.7954 18.5384 12.989 18.076 13.0959C17.996 13.1119 17.9213 13.1253 17.844 13.1359L17.7867 13.1439H17.7893C18.16 12.9866 18.4747 12.8133 18.7467 12.6066C19.0848 12.3515 19.3728 12.036 19.596 11.6759L19.68 11.5373L19.7827 11.3319C19.9672 10.9638 20.1306 10.5854 20.272 10.1986L20.312 10.0813C20.3828 9.88014 20.4377 9.67372 20.476 9.46395C20.4365 9.49606 20.3946 9.52503 20.3507 9.55062C20.0267 9.74395 19.4707 9.91995 19.0227 10.0039L19.9067 9.90528L19.0213 10.0026H18.9987L18.8653 10.0253C18.8733 10.0213 18.8787 10.0173 18.888 10.0146L15.868 10.3479L15.8507 10.3773L15.8587 10.3733ZM11.0267 21.9333C10.8707 22.3639 10.712 22.8053 10.5533 23.2559L10.5467 23.2759C10.5253 23.3373 10.504 23.4013 10.48 23.4653C10.3733 23.7679 10.28 24.0413 10.0667 24.6653C10.4187 24.8253 10.7 25.2453 10.9667 25.7226C10.9413 25.218 10.7181 24.7437 10.3453 24.4026C12.0693 24.4826 13.5587 24.0426 14.332 22.7799C14.3987 22.6679 14.46 22.5493 14.5187 22.4226C14.172 22.8666 13.732 23.0546 12.9187 23.0093C12.9187 23.0093 12.9133 23.0093 12.912 23.0119L12.9173 23.0093C14.1173 22.4706 14.7227 21.9559 15.256 21.0986C15.3813 20.8946 15.504 20.6719 15.6293 20.4279C14.5787 21.5079 13.36 21.8146 12.0773 21.5813L11.1173 21.6853C11.0863 21.7662 11.0565 21.8475 11.028 21.9293L11.0267 21.9333ZM20.56 0.149283C20.0587 0.445283 19.2267 1.28262 18.2293 2.49995L19.144 4.22528C19.784 3.30928 20.4373 2.48262 21.0933 1.77728L21.1707 1.69462C21.144 1.72128 21.1173 1.74795 21.0947 1.77728C20.8813 2.01195 20.236 2.76395 19.2613 4.26128C20.1987 4.21462 21.64 4.02128 22.816 3.82128C23.1653 1.86128 22.472 0.965283 22.472 0.965283C22.472 0.965283 21.592 -0.461384 20.5573 0.151949L20.56 0.149283ZM16.448 8.68528C16.9957 7.66228 17.5765 6.6573 18.1893 5.67195L18.2427 5.58662C18.5413 5.11728 18.8427 4.66262 19.1453 4.22662L18.232 2.50262L18.0227 2.75862C17.76 3.08528 17.4853 3.43862 17.2053 3.81195C16.2503 5.09091 15.3534 6.41225 14.5173 7.77195L14.488 7.82262L15.6787 10.1733C15.932 9.66928 16.1853 9.17062 16.4453 8.68262L16.448 8.68528ZM11.4747 19.7786C11.6853 19.2373 11.9 18.6986 12.1187 18.1453C12.3267 17.6199 12.5453 17.0919 12.764 16.5586C13.4404 14.9416 14.1516 13.3395 14.8973 11.7533L15.1707 11.1879C15.3307 10.8639 15.4867 10.5413 15.6507 10.2226C15.6563 10.2034 15.6653 10.1853 15.6773 10.1693L14.484 7.81861L14.4253 7.91195C14.1493 8.36528 13.8733 8.82795 13.6027 9.30128C13.0899 10.193 12.6043 11.1001 12.1467 12.0213L12.0213 12.2786C11.3697 13.6111 10.8093 14.9862 10.344 16.3946C10.0635 17.2686 9.83203 18.1575 9.65067 19.0573L10.8453 21.4173C11.0013 20.9946 11.1653 20.5666 11.3307 20.1333L11.4747 19.7786ZM9.64 19.1439C9.48806 19.8885 9.38384 20.6421 9.328 21.3999C9.328 21.4266 9.32267 21.4533 9.32133 21.4799C8.948 20.8799 7.948 20.2959 7.95333 20.3013C8.66933 21.3386 9.212 22.3679 9.29333 23.3813C8.90667 23.4586 8.38133 23.3453 7.77333 23.1213C8.40667 23.7026 8.88 23.8626 9.06667 23.9053C8.488 23.9453 7.88 24.3426 7.272 24.7986C8.16267 24.4386 8.88533 24.2919 9.4 24.4119C8.58667 26.7319 7.76 29.2853 6.94267 31.9986C7.05617 31.966 7.15985 31.9058 7.24452 31.8235C7.32918 31.7411 7.39221 31.6392 7.428 31.5266C7.57467 31.0359 8.548 27.8119 10.0653 23.5733L10.1947 23.2133L10.232 23.1093C10.392 22.6666 10.56 22.2133 10.7307 21.7493L10.8507 21.4333V21.4279L9.65333 19.0666C9.64933 19.0933 9.64 19.1199 9.63733 19.1466L9.64 19.1439Z" fill="white"/>
</g>
<defs>
<clipPath id="clip0_8_20">
<rect width="32" height="32" fill="white"/>
</clipPath>
</defs>
</svg>
