<svg width="30" height="30" viewBox="0 0 30 30" fill="none" xmlns="http://www.w3.org/2000/svg">
<g clip-path="url(#clip0_8_8)">
<path d="M30 23.235C29.5634 23.4002 29.0814 23.3998 28.645 23.234C28.2087 23.0682 27.8481 22.7484 27.6312 22.335L23.3188 16.3713L22.6938 15.5375L17.69 22.3425C17.4862 22.7386 17.1452 23.0469 16.7306 23.2098C16.3161 23.3726 15.8564 23.379 15.4375 23.2275L21.885 14.5775L15.8875 6.76378C16.3187 6.60837 16.7904 6.60631 17.223 6.75794C17.6555 6.90958 18.0227 7.20564 18.2625 7.59628L22.7325 13.6338L27.2275 7.62128C27.4328 7.23226 27.774 6.93226 28.186 6.77831C28.5981 6.62437 29.0524 6.6272 29.4625 6.78628L27.135 9.87503L23.9825 13.9788C23.895 14.0569 23.8249 14.1526 23.7769 14.2597C23.729 14.3667 23.7042 14.4827 23.7042 14.6C23.7042 14.7173 23.729 14.8333 23.7769 14.9404C23.8249 15.0475 23.895 15.1432 23.9825 15.2213L29.9875 23.2363L30 23.235ZM0.00249974 14.47L0.5275 11.8763C1.97 6.74753 7.85 4.61378 11.895 7.78878C14.2638 9.65003 14.855 12.285 14.7388 15.255H1.395C1.17875 20.5588 5.00625 23.7613 9.9 22.125C10.6933 21.8395 11.4034 21.3616 11.9667 20.7342C12.53 20.1068 12.9288 19.3494 13.1275 18.53C13.3863 17.6975 13.8125 17.555 14.595 17.795C14.4646 18.8105 14.1056 19.7832 13.5451 20.6399C12.9845 21.4967 12.237 22.2151 11.3588 22.7413C9.90802 23.5348 8.24353 23.8493 6.60328 23.6399C4.96303 23.4304 3.431 22.7077 2.22625 21.575C1.03504 20.2343 0.315095 18.5406 0.17625 16.7525C0.17625 16.4588 0.0762497 16.1838 0.00874974 15.92C0.00266477 15.4371 -0.000251955 14.9542 -2.63441e-07 14.4713L0.00249974 14.47ZM1.41125 14.1125H13.4788C13.4038 10.2675 10.9775 7.54003 7.74125 7.51503C4.13875 7.46503 1.56125 10.1325 1.4025 14.095L1.41125 14.1125Z" fill="white"/>
</g>
<defs>
<clipPath id="clip0_8_8">
<rect width="30" height="30" fill="white"/>
</clipPath>
</defs>
</svg>
