<svg width="32" height="32" viewBox="0 0 32 32" fill="none" xmlns="http://www.w3.org/2000/svg">
<g clip-path="url(#clip0_7_5)">
<path d="M15.9973 32.0001C15.5693 32.0001 15.1427 31.8881 14.768 31.6708L10.8533 29.3548C10.2693 29.0281 10.5547 28.9121 10.7467 28.8441C11.5267 28.5734 11.684 28.5108 12.5173 28.0388C12.604 27.9894 12.7187 28.0081 12.808 28.0614L15.816 29.8468C15.9253 29.9068 16.0787 29.9068 16.1787 29.8468L27.9053 23.0788C28.0147 23.0161 28.084 22.8908 28.084 22.7614V9.22809C28.084 9.09609 28.0133 8.97209 27.9013 8.90542L16.18 2.14276C16.072 2.08009 15.928 2.08009 15.8187 2.14276L4.1 8.90675C3.98667 8.97209 3.91467 9.10009 3.91467 9.22809V22.7614C3.91467 22.8908 3.98667 23.0134 4.1 23.0748L7.312 24.9308C9.05467 25.8028 10.1227 24.7761 10.1227 23.7441V10.3828C10.1227 10.1934 10.2747 10.0454 10.464 10.0454H11.9507C12.136 10.0454 12.2907 10.1948 12.2907 10.3828V23.7441C12.2907 26.0708 11.024 27.4041 8.81867 27.4041C8.14133 27.4041 7.60667 27.4041 6.11733 26.6694L3.04 24.9001C2.28 24.4614 1.81067 23.6401 1.81067 22.7614V9.22809C1.81067 8.34942 2.28133 7.52809 3.04 7.09075L14.7667 0.314756C15.5093 -0.105244 16.4947 -0.105244 17.2307 0.314756L28.956 7.09075C29.716 7.52942 30.188 8.34942 30.188 9.22809V22.7614C30.188 23.6401 29.716 24.4588 28.956 24.9001L17.2307 31.6708C16.8573 31.8881 16.432 32.0001 15.9973 32.0001ZM25.4653 18.6574C25.4653 16.1241 23.7533 15.4494 20.1493 14.9734C16.508 14.4921 16.1373 14.2428 16.1373 13.3908C16.1373 12.6868 16.4507 11.7468 19.148 11.7468C21.5573 11.7468 22.4453 12.2654 22.8107 13.8894C22.8427 14.0428 22.9827 14.1548 23.14 14.1548H24.6613C24.756 14.1548 24.8453 14.1134 24.9093 14.0468C24.9733 13.9748 25.008 13.8828 24.9987 13.7854C24.7627 10.9881 22.904 9.68409 19.148 9.68409C15.804 9.68409 13.8093 11.0948 13.8093 13.4614C13.8093 16.0281 15.7933 16.7374 19.0027 17.0548C22.8427 17.4308 23.14 17.9921 23.14 18.7468C23.14 20.0574 22.088 20.6161 19.6173 20.6161C16.5147 20.6161 15.832 19.8374 15.6027 18.2934C15.576 18.1281 15.4347 18.0068 15.2653 18.0068H13.7493C13.5613 18.0068 13.4107 18.1561 13.4107 18.3441C13.4107 20.3201 14.4853 22.6748 19.6173 22.6748C23.3347 22.6761 25.4653 21.2134 25.4653 18.6574Z" fill="white"/>
</g>
<defs>
<clipPath id="clip0_7_5">
<rect width="32" height="32" fill="white"/>
</clipPath>
</defs>
</svg>
