<svg width="31" height="31" viewBox="0 0 31 31" fill="none" xmlns="http://www.w3.org/2000/svg">
<path d="M9.05458 13.184H7.83525L7.17004 16.6044H8.25246C8.97062 16.6044 9.50537 16.4687 9.85671 16.1988C10.208 15.9275 10.4444 15.4767 10.5671 14.8438C10.686 14.2367 10.6317 13.8079 10.407 13.5586C10.1809 13.3093 9.73142 13.184 9.05458 13.184ZM15.5 7.34698C6.94012 7.34698 0 10.9972 0 15.5C0 20.0027 6.94012 23.6543 15.5 23.6543C24.0599 23.6543 31 20.0027 31 15.5C31 10.9972 24.0599 7.34698 15.5 7.34698ZM11.2892 16.9712C10.952 17.2941 10.5465 17.5369 10.1047 17.6829C9.67071 17.8224 9.11658 17.8947 8.44492 17.8947H6.91946L6.49708 20.066H4.71717L6.30592 11.8949H9.72883C10.7583 11.8949 11.5087 12.1649 11.9815 12.7061C12.4542 13.246 12.5963 14.0004 12.4077 14.9691C12.3355 15.3524 12.2025 15.7218 12.0138 16.0632C11.8291 16.3925 11.5875 16.6961 11.2892 16.9712ZM16.4868 17.8947L17.1882 14.2794C17.2696 13.8686 17.2386 13.587 17.1004 13.4385C16.9622 13.2887 16.6664 13.2137 16.213 13.2137H14.8025L13.8932 17.896H12.1262L13.7149 9.72365H15.4806L15.0582 11.8962H16.6315C17.6222 11.8962 18.3042 12.0693 18.6801 12.4142C19.056 12.7591 19.1683 13.3184 19.0198 14.0921L18.281 17.8947H16.4868ZM26.2996 14.9691C26.2286 15.3528 26.0955 15.7223 25.9057 16.0632C25.721 16.3925 25.4794 16.6961 25.181 16.9712C24.8437 17.2931 24.4392 17.5362 23.9966 17.6829C23.5626 17.8224 23.0085 17.8947 22.3355 17.8947H20.8113L20.389 20.0673H18.609L20.1978 11.8962H23.6194C24.6489 11.8962 25.3993 12.1662 25.8721 12.7074C26.3448 13.246 26.4882 14.0004 26.2996 14.9691ZM22.9478 13.184H21.7297L21.0632 16.6044H22.1456C22.8651 16.6044 23.3998 16.4687 23.7499 16.1988C24.1012 15.9275 24.3376 15.4767 24.4616 14.8438C24.5804 14.2367 24.5249 13.8079 24.3001 13.5586C24.0754 13.3093 23.6233 13.184 22.9478 13.184Z" fill="white"/>
</svg>
