<svg width="32" height="32" viewBox="0 0 32 32" fill="none" xmlns="http://www.w3.org/2000/svg">
<g clip-path="url(#clip0_8_17)">
<path d="M19 0.24L20.2 0.506667L21.1733 0.853333L21.96 1.25333L22.56 1.68L23.0133 2.13333L23.3467 2.58667L23.56 3.02667L23.6933 3.42667L23.7467 3.77333L23.7733 4.04L23.76 4.21333V11.3333L23.6933 12.1733L23.52 12.9067L23.24 13.52L22.8933 14.0267L22.4933 14.44L22.0533 14.7733L21.5867 15.0267L21.12 15.2133L20.68 15.3467L20.28 15.44L19.9333 15.4933L19.6533 15.52H11.6933L10.7733 15.5867L9.98668 15.7733L9.32001 16.0667L8.77335 16.4267L8.33335 16.8533L7.97335 17.32L7.70668 17.8L7.50668 18.2933L7.37335 18.76L7.28001 19.1867L7.22668 19.5467L7.20001 19.8267V23.9067H4.22668L3.94668 23.8667L3.57335 23.7733L3.14668 23.6133L2.68001 23.3733L2.20001 23.0267L1.72001 22.5467L1.25335 21.9333L0.82668 21.1467L0.453347 20.1733L0.173347 19L-0.0133199 17.6L-0.0799866 15.96L1.34259e-05 14.3333L0.213347 12.9467L0.533347 11.7867L0.960014 10.84L1.44001 10.08L1.97335 9.49333L2.53335 9.05333L3.09335 8.73333L3.62668 8.52L4.10668 8.38667L4.53335 8.32L4.85335 8.30667H5.06668L5.14668 8.32H16.0267V7.21333H8.24001L8.22668 3.54667L8.20001 3.05333L8.26668 2.6L8.41335 2.18667L8.64001 1.81333L8.97335 1.46667L9.38668 1.16L9.89335 0.893333L10.48 0.653333L11.16 0.453333L11.9333 0.293333L12.7867 0.16L13.7333 0.08L14.76 0.0266667L15.88 0L17.5733 0.0666667L19 0.24ZM10.6 2.88L10.2933 3.32L10.1867 3.86667L10.2933 4.41333L10.6 4.86667L11.04 5.16L11.5867 5.28L12.1333 5.16L12.5733 4.86667L12.88 4.41333L12.9867 3.86667L12.88 3.32L12.5733 2.88L12.1333 2.58667L11.5867 2.46667L11.04 2.58667L10.6 2.88ZM28.0533 8.14667L28.4267 8.22667L28.8533 8.38667L29.32 8.62667L29.8 8.98667L30.28 9.45333L30.7467 10.08L31.1733 10.8667L31.5467 11.84L31.8267 13.0133L32.0133 14.4L32.08 16.04L32 17.68L31.7867 19.0667L31.4667 20.2133L31.04 21.16L30.56 21.92L30.0267 22.52L29.4667 22.96L28.9067 23.28L28.3733 23.4933L27.8933 23.6133L27.4667 23.68L27.1467 23.7067L26.9333 23.6933H15.9733V24.7867H23.76L23.7733 28.4667L23.8 28.9467L23.7333 29.4L23.5867 29.8133L23.36 30.2L23.0267 30.5333L22.6133 30.8533L22.1067 31.12L21.52 31.3467L20.84 31.5467L20.0667 31.72L19.2133 31.84L18.2667 31.9333L17.24 31.9867L16.12 32L14.4267 31.9467L13 31.76L11.8 31.4933L10.8267 31.16L10.04 30.76L9.44001 30.32L8.98668 29.8667L8.65335 29.4133L8.44001 28.9733L8.30668 28.5733L8.25335 28.24L8.22668 27.9733L8.24001 27.8V20.68L8.30668 19.8267L8.48001 19.1067L8.76001 18.4933L9.10668 17.9867L9.50668 17.56L9.94668 17.24L10.4133 16.9733L10.88 16.7867L11.32 16.6533L11.72 16.5733L12.0667 16.52L12.3467 16.4933L12.52 16.48H20.3067L21.2267 16.4133L22.0133 16.2267L22.68 15.9467L23.2267 15.5733L23.6667 15.1467L24.0267 14.68L24.2933 14.2L24.4933 13.72L24.6267 13.2533L24.72 12.8267L24.7733 12.4533L24.8 12.1733V8.09333H27.5867L27.7733 8.10667L28.0533 8.14667ZM19.4267 27.1467L19.12 27.5867L19.0133 28.1333L19.12 28.68L19.4267 29.12L19.8667 29.4267L20.4133 29.5333L20.96 29.4267L21.4 29.12L21.7067 28.68L21.8133 28.1333L21.7067 27.5867L21.4 27.1467L20.96 26.84L20.4133 26.7333L19.8667 26.84L19.4267 27.1467Z" fill="white"/>
</g>
<defs>
<clipPath id="clip0_8_17">
<rect width="32" height="32" fill="white"/>
</clipPath>
</defs>
</svg>
