<svg width="30" height="30" viewBox="0 0 30 30" fill="none" xmlns="http://www.w3.org/2000/svg">
<g clip-path="url(#clip0_8_11)">
<path d="M14.9202 0.0170961C13.666 0.0206942 12.417 0.179399 11.2017 0.489596C5.35199 1.94335 0.709742 7.24297 0.114742 13.2515C-0.622758 18.9375 2.24962 24.8585 7.16937 27.7946C11.9954 30.817 18.5351 30.6945 23.2611 27.5158C27.5072 24.7583 30.1509 19.7312 29.9934 14.6602C29.9209 9.64035 27.1059 4.76435 22.7949 2.18572C20.4425 0.734471 17.6789 0.00584608 14.9202 0.0170961ZM14.8415 2.1371C21.0225 2.12835 27.0772 6.90422 27.6934 13.2927C28.8746 20.3673 23.0024 27.5583 15.834 27.7671C9.01674 28.4471 2.42837 22.6673 2.23462 15.8213C1.72587 10.2791 5.37949 4.7781 10.6067 2.94697C11.954 2.41027 13.3913 2.13578 14.8415 2.13822V2.1371ZM21.205 6.1681C17.8464 8.77422 14.6302 11.5528 11.3442 14.239C12.8479 14.2602 14.359 14.259 15.8702 14.2515C17.6327 11.5452 19.4439 8.87547 21.205 6.1681ZM14.1241 15.7351C12.3616 18.4426 10.5491 21.1211 8.78674 23.8272C12.153 21.2273 15.3552 18.4275 18.6639 15.7576C17.1507 15.7393 15.6374 15.7318 14.1241 15.7351Z" fill="white"/>
</g>
<defs>
<clipPath id="clip0_8_11">
<rect width="30" height="30" fill="white"/>
</clipPath>
</defs>
</svg>
