<svg width="29" height="29" viewBox="0 0 29 29" fill="none" xmlns="http://www.w3.org/2000/svg">
<path d="M19.8227 6.64699C19.6838 6.64699 19.5895 6.6639 19.4916 6.68686V6.70257H19.5085C19.5738 6.82824 19.685 6.92007 19.7671 7.03245C19.8324 7.16174 19.888 7.29103 19.9532 7.41911L19.9701 7.40099C20.0837 7.32124 20.1393 7.19315 20.1393 6.99861C20.091 6.94182 20.0837 6.88503 20.0426 6.82945C19.9943 6.74849 19.8904 6.70861 19.8251 6.64457L19.8227 6.64699ZM6.97208 22.5897H5.85196C5.82046 20.8096 5.71161 19.0317 5.52571 17.261H5.51604L3.81229 22.5897H2.96042L1.26875 17.261H1.25667C1.12435 19.0345 1.04577 20.8115 1.02104 22.5897H0C0.0664583 20.2142 0.232 17.986 0.495417 15.9077H1.885L3.49813 20.8183H3.50779L5.13542 15.9077H6.45854C6.75096 18.3424 6.92254 20.5718 6.97571 22.5897H6.97208ZM11.826 17.6597C11.3692 20.1308 10.7675 21.9288 10.0231 23.0489C9.44071 23.9141 8.80271 24.3454 8.11033 24.3454C7.92546 24.3454 7.6995 24.2899 7.42642 24.1787V23.5818C7.55933 23.6023 7.71642 23.6132 7.89283 23.6132C8.21667 23.6132 8.47646 23.5226 8.67463 23.3449C8.91267 23.1274 9.03108 22.8834 9.03108 22.6139C9.03108 22.4266 8.93804 22.046 8.75317 21.4732L7.52792 17.6597H8.6275L9.50596 20.5114C9.70413 21.1591 9.7875 21.611 9.75367 21.8684C10.237 20.5827 10.5729 19.1774 10.7626 17.6597H11.826ZM26.7187 22.5897H23.5408V15.9077H24.6101V21.7681H26.7187V22.5897ZM22.707 22.7529L21.4793 22.1487C21.5881 22.0569 21.6932 21.9578 21.7875 21.8466C22.3107 21.2352 22.5705 20.3265 22.5705 19.1242C22.5705 16.913 21.7029 15.8062 19.9665 15.8062C19.1158 15.8062 18.4513 16.0865 17.9727 16.6484C17.4532 17.2622 17.1922 18.166 17.1922 19.3611C17.1922 20.5356 17.4218 21.3983 17.8857 21.9469C18.3087 22.4423 18.9455 22.69 19.7985 22.69C20.1175 22.69 20.41 22.6502 20.6746 22.5716L22.2756 23.5044L22.7106 22.7529H22.707ZM18.7292 21.2521C18.4573 20.8171 18.322 20.1163 18.322 19.1544C18.322 17.4712 18.8343 16.629 19.8565 16.629C20.3918 16.629 20.787 16.8308 21.0371 17.2332C21.3078 17.6706 21.4431 18.3642 21.4431 19.3152C21.4431 21.0117 20.9307 21.8623 19.9085 21.8623C19.3708 21.8623 18.9781 21.6605 18.7268 21.2582L18.7292 21.2521ZM16.7257 20.7386C16.7257 21.3065 16.5179 21.7729 16.1023 22.1354C15.6866 22.4979 15.132 22.6792 14.4299 22.6792C13.7738 22.6792 13.1443 22.4713 12.5292 22.0569L12.8156 21.4817C13.3448 21.7475 13.8221 21.878 14.2535 21.878C14.6547 21.878 14.97 21.7898 15.1996 21.6122C15.3144 21.5257 15.407 21.4133 15.47 21.2841C15.533 21.155 15.5646 21.0127 15.5621 20.8691C15.5621 20.4703 15.2842 20.132 14.7791 19.848C14.3103 19.5907 13.3738 19.0542 13.3738 19.0542C12.8639 18.6832 12.6102 18.2857 12.6102 17.6319C12.6102 17.0882 12.7999 16.6532 13.1781 16.3209C13.5587 15.985 14.0481 15.8194 14.6523 15.8194C15.2709 15.8194 15.8364 15.9838 16.3439 16.3149L16.0865 16.89C15.681 16.7119 15.2438 16.6174 14.8009 16.6121C14.4589 16.6121 14.1943 16.6943 14.0106 16.861C13.9174 16.9382 13.8423 17.035 13.7905 17.1443C13.7387 17.2537 13.7116 17.3732 13.711 17.4942C13.711 17.8905 13.9937 18.2313 14.5157 18.5213C14.9906 18.7811 15.95 19.3309 15.95 19.3309C16.4732 19.6994 16.733 20.0921 16.733 20.7422L16.7257 20.7386ZM28.0623 13.6674C27.4159 13.6505 26.9144 13.7157 26.4951 13.8946C26.3743 13.9429 26.181 13.9429 26.164 14.0964C26.2305 14.1604 26.2402 14.2655 26.297 14.3549C26.3936 14.5169 26.5604 14.7332 26.715 14.8467C26.8842 14.9797 27.0534 15.1077 27.231 15.2213C27.5452 15.4147 27.9016 15.5294 28.2098 15.724C28.385 15.8376 28.5638 15.9814 28.7414 16.1022C28.8296 16.1626 28.8864 16.2714 29 16.31V16.2859C28.9444 16.2134 28.9275 16.1082 28.8731 16.0273C28.7922 15.9463 28.7112 15.8738 28.6315 15.7941C28.3942 15.4814 28.1111 15.2065 27.7917 14.9784C27.5331 14.802 26.9676 14.5555 26.8612 14.2595L26.8455 14.2426C27.022 14.2269 27.2322 14.1628 27.4014 14.1145C27.6757 14.042 27.927 14.0577 28.211 13.9864C28.339 13.9538 28.4683 13.9139 28.5976 13.8728V13.8003C28.4526 13.6553 28.3439 13.4584 28.194 13.323C27.7758 12.9575 27.3298 12.625 26.86 12.3286C26.6063 12.1667 26.2849 12.0627 26.0178 11.925C25.9212 11.8767 25.7593 11.8525 25.7037 11.7715C25.5587 11.5951 25.4741 11.3607 25.3714 11.1504C25.1341 10.6902 24.9136 10.2214 24.7104 9.74515C24.5654 9.42857 24.4772 9.1132 24.2996 8.8232C23.4658 7.44932 22.5632 6.61678 21.1748 5.80236C20.8764 5.6332 20.5187 5.5607 20.1405 5.47128C19.9387 5.46161 19.7369 5.44711 19.5363 5.43865C19.4034 5.38186 19.2753 5.2284 19.1618 5.1547C18.7026 4.8647 17.5136 4.23636 17.1753 5.0677C16.9578 5.59211 17.4979 6.10928 17.6852 6.37511C17.8241 6.55999 17.9993 6.77145 18.096 6.97928C18.1528 7.11945 18.1685 7.26324 18.2253 7.40945C18.3534 7.7647 18.4754 8.16103 18.6446 8.49332C18.7328 8.66249 18.8295 8.84011 18.943 8.99236C19.0083 9.08057 19.1195 9.12165 19.1448 9.26665C19.0312 9.43099 19.024 9.67024 18.9587 9.87082C18.6688 10.7855 18.7823 11.9165 19.1932 12.5896C19.3225 12.7902 19.6306 13.2348 20.0426 13.0644C20.4051 12.9194 20.3254 12.4603 20.4293 12.0555C20.4535 11.9588 20.4377 11.8948 20.4873 11.8295V11.8477C20.6009 12.0748 20.7145 12.2911 20.8184 12.5183C21.0673 12.9146 21.5023 13.3254 21.866 13.5997C22.0593 13.7447 22.2128 13.9961 22.4545 14.0855V14.0613H22.4363C22.3844 13.9912 22.3155 13.9574 22.2502 13.9006C22.097 13.7506 21.9556 13.589 21.8273 13.4173C21.4869 12.9521 21.185 12.4599 20.9247 11.9455C20.7918 11.6918 20.6806 11.4187 20.5743 11.1686C20.526 11.0719 20.526 10.9269 20.445 10.8786C20.3242 11.055 20.1465 11.2084 20.0583 11.4259C19.9049 11.7739 19.8892 12.2017 19.8312 12.6464C19.7985 12.6548 19.8143 12.6464 19.7985 12.6633C19.54 12.6004 19.4517 12.3322 19.3551 12.1074C19.1134 11.5335 19.0735 10.6115 19.2826 9.95057C19.3394 9.7814 19.581 9.24732 19.4844 9.0854C19.4336 8.93195 19.2741 8.84374 19.1859 8.71928C19.0724 8.55729 18.9753 8.38446 18.8959 8.20332C18.7026 7.75141 18.6059 7.25115 18.3957 6.79924C18.299 6.5902 18.1298 6.37149 17.9921 6.17936C17.8386 5.96186 17.6695 5.8084 17.5474 5.55103C17.5075 5.46282 17.4508 5.31661 17.5148 5.21995C17.5317 5.1547 17.5655 5.12932 17.6284 5.1112C17.7347 5.0242 18.0332 5.13778 18.1383 5.18611C18.4368 5.30695 18.6881 5.42053 18.9382 5.5897C19.0518 5.66945 19.1738 5.8229 19.3188 5.86278H19.488C19.7466 5.91957 20.0378 5.8797 20.2795 5.95099C20.7084 6.08874 21.0951 6.28932 21.4419 6.50682C22.5104 7.18943 23.3796 8.14236 23.9613 9.26907C24.0579 9.45515 24.1002 9.62553 24.1884 9.81886C24.3576 10.2176 24.5666 10.62 24.7382 11.0054C24.9074 11.3861 25.0705 11.7739 25.3134 12.0893C25.4342 12.2585 25.92 12.3467 26.1375 12.4349C26.2982 12.5074 26.5483 12.5739 26.6933 12.6621C26.9712 12.8312 27.2419 13.0246 27.5029 13.2107C27.6358 13.3025 28.0382 13.5043 28.0623 13.6674Z" fill="white"/>
</svg>
